Coordinates
version=1
nRows=14
nColumns=24
inDegrees=yes

Units are S.I. units (second, meters, Newtons, ...)
Angles are in degrees.

endheader
time	pelvis_tilt	pelvis_list	pelvis_rotation	pelvis_tx	pelvis_ty	pelvis_tz	hip_flexion_r	hip_adduction_r	hip_rotation_r	knee_angle_r	ankle_angle_r	subtalar_angle_r	mtp_angle_r	hip_flexion_l	hip_adduction_l	hip_rotation_l	knee_angle_l	ankle_angle_l	subtalar_angle_l	mtp_angle_l	lumbar_extension	lumbar_bending	lumbar_rotation
      1.05700000	     -5.99181992	     -2.17690481	      3.29459311	      0.50604938	      0.99875712	      0.34304440	     16.23308226	      5.78208751	      2.01617398	    -20.43799801	     10.76561596	     -9.40423571	      3.22027027	     23.86378952	     -2.51065642	      1.12377394	    -70.90891148	      2.16954818	     -2.78603683	      5.57461602	     -5.00046492	     10.69332278	     -1.50071194
      1.06116667	     -5.96158815	     -2.03586748	      3.12914405	      0.51065948	      0.99958939	      0.34341200	     15.68899637	      5.70998736	      2.24871963	    -19.99346994	     10.76370777	     -9.44436948	      3.23540831	     24.38444623	     -2.47843947	      0.93202408	    -70.49217381	      2.76405163	     -2.52687177	      5.47130268	     -5.09131476	     10.47166728	     -1.19808467
      1.06533333	     -5.94487329	     -1.90645385	      2.96788054	      0.51527989	      1.00036856	      0.34375751	     15.15717150	      5.64411592	      2.47895749	    -19.54277238	     10.75824880	     -9.48838000	      3.25142716	     24.90787726	     -2.45655348	      0.75031527	    -70.03206963	      3.32309494	     -2.29103300	      5.35953435	     -5.16491890	     10.26730816	     -0.90320995
      1.06950000	     -5.91964856	     -1.73254054	      2.79068222	      0.51988415	      1.00113304	      0.34407095	     14.63536274	      5.52296237	      2.69772270	    -19.13540229	     10.75068329	     -9.45815472	      3.26119361	     25.39480824	     -2.38645960	      0.54619422	    -69.50638111	      3.83885457	     -2.13850247	      5.29991323	     -5.24837747	     10.03630982	     -0.73038766
      1.07366667	     -5.86389818	     -1.61371659	      2.63974106	      0.52452265	      1.00190447	      0.34439154	     14.04722347	      5.46138044	      2.93278393	    -18.65223538	     10.77950254	     -9.52739087	      3.27903454	     25.84664014	     -2.37800443	      0.38304693	    -68.95021891	      4.32084363	     -1.90339801	      5.17868096	     -5.36473842	      9.82734353	     -0.34197322
      1.07783333	     -5.83467571	     -1.49660380	      2.47075752	      0.52915082	      1.00259484	      0.34469345	     13.49649259	      5.39596129	      3.17541654	    -18.18128006	     10.74101667	     -9.57200602	      3.30453124	     26.31067825	     -2.36886731	      0.21269458	    -68.35125919	      4.76792862	     -1.78137820	      5.00538025	     -5.45197751	      9.64427524	     -0.02825032
      1.08200000	     -5.79434824	     -1.34203759	      2.30370665	      0.53378015	      1.00326311	      0.34497295	     12.94921562	      5.28194642	      3.39133307	    -17.75279825	     10.79434104	     -9.56773720	      3.32288297	     26.73909299	     -2.31841350	      0.03608743	    -67.69219956	      5.15905447	     -1.64347300	      4.89676870	     -5.53688201	      9.42261389	      0.18122492
      1.08616667	     -5.75025667	     -1.19941538	      2.13541280	      0.53842217	      1.00391716	      0.34522855	     12.38895813	      5.17517853	      3.61285280	    -17.30096861	     10.81009804	     -9.56109001	      3.34112995	     27.14613217	     -2.27425122	     -0.12435229	    -66.98626894	      5.50923869	     -1.56623640	      4.78432928	     -5.63232141	      9.21826137	      0.44499823
      1.09033333	     -5.70334064	     -1.05096321	      1.96117774	      0.54306924	      1.00453140	      0.34547693	     11.83033527	      5.05617537	      3.82342108	    -16.85802233	     10.83660113	     -9.53344140	      3.36153118	     27.53197670	     -2.22410933	     -0.28609193	    -66.23498291	      5.81681371	     -1.53393174	      4.66793187	     -5.72854002	      9.00353225	      0.70489153
      1.09450000	     -5.68373596	     -0.90276338	      1.77691609	      0.54770763	      1.00506767	      0.34569744	     11.31192446	      4.92963582	      4.03183006	    -16.43414563	     10.84303158	     -9.46316165	      3.37428692	     27.92954678	     -2.16798410	     -0.44079514	    -65.43939952	      6.08857695	     -1.52994102	      4.59867757	     -5.78614854	      8.82462890	      0.87822968
      1.09866667	     -5.61097528	     -0.77399344	      1.61134563	      0.55238296	      1.00564878	      0.34591564	     10.71321124	      4.82054270	      4.22748974	    -15.96325647	     10.89611865	     -9.44710908	      3.39314013	     28.25570026	     -2.13057933	     -0.57148894	    -64.60364152	      6.30442855	     -1.55468393	      4.49596993	     -5.90881666	      8.61720252	      1.18485627
      1.10283333	     -5.55498287	     -0.63218530	      1.43455667	      0.55704113	      1.00616017	      0.34610990	     10.14563974	      4.68989459	      4.41780925	    -15.51712718	     10.93793772	     -9.38116580	      3.41397698	     28.58032031	     -2.07228001	     -0.69728404	    -63.72249377	      6.48579294	     -1.61685366	      4.39177946	     -6.01266079	      8.41948315	      1.43604194
      1.10700000	     -5.50697465	     -0.49846060	      1.25535664	      0.56171456	      1.00661937	      0.34629526	      9.58876644	      4.56274523	      4.60200078	    -15.07519022	     10.98266328	     -9.30388793	      3.43469347	     28.89582841	     -2.01851726	     -0.80904702	    -62.80158964	      6.63235392	     -1.69976827	      4.29383547	     -6.09917617	      8.23748141	      1.67540400
      1.11116667	     -5.44783961	     -0.36739728	      1.07770384	      0.56640165	      1.00706739	      0.34645803	      9.01506547	      4.43064349	      4.77702945	    -14.62132566	     11.02581250	     -9.21356710	      3.45589271	     29.17913924	     -1.96145808	     -0.90434195	    -61.83526173	      6.73689493	     -1.81293362	      4.19892681	     -6.19908523	      8.05697481	      1.91357435
